<svg xmlns="http://www.w3.org/2000/svg" width="256" height="256"><path fill-opacity=".016" d="M0 128.004v128.004l128.25-.254 128.25-.254.254-127.75L257.008 0H0v128.004m.485.496c0 70.4.119 99.053.265 63.672.146-35.38.146-92.98 0-128C.604 29.153.485 58.1.485 128.5" fill="#1976D2" fill-rule="evenodd"/><path fill-opacity=".087" d="M116.835.877c.781.495-.876.666-4 .412-3.899-.316-4.931-.152-3.835.611 1.1.765.458.876-2.405.416-2.437-.392-3.679-.261-3.303.347.362.586-.63.794-2.487.522-1.887-.277-2.851-.068-2.477.536.37.599-.422.793-2.007.49-1.97-.377-2.419-.179-1.815.799.535.866.41 1.056-.375.571-1.765-1.091-13.367 3.03-24.506 8.703-23.718 12.081-43.26 31.623-55.341 55.341C8.611 80.764 4.49 92.366 5.581 94.131c.485.785.295.91-.571.375-.978-.604-1.176-.155-.799 1.815.303 1.585.109 2.377-.49 2.007-.604-.374-.813.59-.536 2.477.272 1.857.064 2.849-.522 2.487-.608-.376-.739.866-.347 3.303.46 2.863.349 3.505-.416 2.405-.763-1.096-.927-.064-.611 3.835.254 3.124.083 4.781-.412 4-.486-.767-.823 3.986-.791 11.165.033 7.664.377 11.726.889 10.5.514-1.23.648.309.35 4-.354 4.371-.2 5.593.566 4.5.776-1.106.888-.475.425 2.405-.45 2.799-.305 3.706.513 3.201.809-.5.955.226.5 2.5-.411 2.055-.278 2.981.37 2.58.626-.387.821.373.512 1.993-.322 1.68-.124 2.385.551 1.968.667-.412.845.14.487 1.508-.411 1.571-.22 1.945.701 1.376.942-.582 1.082-.207.55 1.469-.519 1.635-.382 2.045.5 1.5.882-.545 1.019-.135.5 1.5-.519 1.635-.382 2.045.5 1.5.882-.545 1.019-.135.5 1.5-.483 1.521-.359 2.031.381 1.573.687-.424.874-.098.501.875-.329.856-.073 1.552.57 1.552.641 0 .913.409.604.91-.794 1.284.471 4.191 1.537 3.532.486-.3.616.152.289 1.006-.329.856-.073 1.552.57 1.552.641 0 .888.45.548 1-.34.55-.066 1 .608 1 .674 0 .932.293.574.651-.358.358.13 1.292 1.084 2.074.953.783 1.127 1.111.384.728-1.088-.559-1.129-.283-.215 1.426.625 1.167 1.645 2.121 2.267 2.121.622 0 .838.293.48.651-.358.358.13 1.292 1.084 2.074 1.146.941 1.226 1.199.234.762-.825-.363-.375.318 1 1.513 1.375 1.195 1.825 1.87 1 1.5-.825-.37-.375.305 1 1.5s1.825 1.86 1 1.477-.354.365 1.047 1.663c1.401 1.298 1.851 1.966 1 1.483-.851-.482.273.868 2.497 3 2.224 2.133 3.321 3.427 2.438 2.877-.883-.55.401.847 2.853 3.104s6.304 6.109 8.561 8.561c2.257 2.452 3.654 3.733 3.104 2.845-.55-.887.507-.015 2.35 1.938 1.842 1.954 3.047 2.877 2.678 2.052-.37-.825.534-.15 2.009 1.5 1.476 1.65 2.369 2.325 1.986 1.5-.383-.825.282-.375 1.477 1s1.87 1.825 1.5 1c-.37-.825.305-.375 1.5 1s1.876 1.825 1.513 1c-.437-.992-.179-.912.762.234.782.954 1.716 1.442 2.074 1.084.358-.358.651-.142.651.48s.954 1.642 2.121 2.267c1.616.865 1.947.853 1.39-.048-.429-.693.557-.516 2.379.426 1.71.885 3.11 2.095 3.11 2.69 0 .594.698.813 1.552.485.854-.327 1.306-.197 1.006.289-.659 1.066 2.248 2.331 3.532 1.537.501-.309.91-.037.91.604 0 .643.696.899 1.552.57.973-.373 1.299-.186.875.501-.458.74.052.864 1.573.381 1.533-.487 2.032-.361 1.566.393-.679 1.098 1.127 1.581 4.742 1.267 1.136-.099 1.542.273 1.094.999-.489.791-.034.978 1.442.592 1.186-.31 2.156-.103 2.156.459 0 .563.901.788 2.001.5 1.101-.288 1.781-.166 1.511.271-.584.945 8.072 2.394 9.4 1.574.504-.312 1.106-.002 1.336.689.702 2.108 33.241 1.681 43.52-.571 32.264-7.07 59.132-24.172 78.234-49.798 11.19-15.012 20.356-36.679 23.002-54.375.658-4.4 1.602-8.781 2.096-9.736 1.263-2.438 1.165-25.721-.1-23.764-.71 1.099-.973.362-.985-2.75-.008-2.338-.492-4.25-1.074-4.25-.582 0-.78-.451-.439-1.003.857-1.386-.539-10.092-1.521-9.485-.437.27-.559-.41-.271-1.511.288-1.1.063-2.001-.5-2.001-.562 0-.769-.97-.459-2.156.386-1.476.199-1.931-.592-1.442-.726.448-1.098.042-.999-1.094.314-3.615-.169-5.421-1.267-4.742-.754.466-.88-.033-.393-1.566.483-1.521.359-2.031-.381-1.573-.687.424-.874.098-.501-.875.329-.856.073-1.552-.57-1.552-.641 0-.913-.409-.604-.91.794-1.284-.471-4.191-1.537-3.532-.486.3-.616-.152-.289-1.006.328-.854.109-1.552-.485-1.552-.595 0-1.805-1.4-2.69-3.11-.942-1.822-1.119-2.808-.426-2.379.901.557.913.226.048-1.39-.625-1.167-1.645-2.121-2.267-2.121-.622 0-.838-.293-.48-.651.358-.358-.13-1.292-1.084-2.074-1.146-.941-1.226-1.199-.234-.762.825.363.375-.318-1-1.513-1.375-1.195-1.825-1.87-1-1.5.825.37.375-.305-1-1.5s-1.825-1.86-1-1.477.15-.51-1.5-1.986c-1.65-1.475-2.325-2.379-1.5-2.009.825.369-.098-.836-2.052-2.678-1.953-1.843-2.825-2.9-1.938-2.35.888.55-.393-.847-2.845-3.104s-6.304-6.109-8.561-8.561c-2.257-2.452-3.654-3.736-3.104-2.853.55.883-.744-.214-2.877-2.438-2.132-2.224-3.482-3.348-3-2.497.483.851-.185.401-1.483-1s-2.046-1.872-1.663-1.047c.383.825-.282.375-1.477-1s-1.87-1.825-1.5-1c.37.825-.305.375-1.5-1s-1.876-1.825-1.513-1c.437.992.179.912-.762-.234-.782-.954-1.716-1.442-2.074-1.084-.358.358-.651.142-.651-.48s-.954-1.642-2.121-2.267c-1.709-.914-1.985-.873-1.426.215.383.743.055.569-.728-.384-.782-.954-1.716-1.442-2.074-1.084-.358.358-.651.1-.651-.574 0-.674-.45-.948-1-.608-.55.34-1 .093-1-.548 0-.643-.696-.899-1.552-.57-.854.327-1.306.197-1.006-.289.659-1.066-2.248-2.331-3.532-1.537-.501.309-.91.037-.91-.604 0-.643-.696-.899-1.552-.57-.973.373-1.299.186-.875-.501.458-.74-.052-.864-1.573-.381-1.635.519-2.045.382-1.5-.5.545-.882.135-1.019-1.5-.5-1.635.519-2.045.382-1.5-.5.545-.882.135-1.019-1.5-.5-1.676.532-2.051.392-1.469-.55.569-.921.195-1.112-1.376-.701-1.368.358-1.92.18-1.508-.487.417-.675-.288-.873-1.968-.551-1.62.309-2.38.114-1.993-.512.401-.648-.525-.781-2.58-.37-2.274.455-3 .309-2.5-.5.505-.818-.402-.963-3.201-.513-2.88.463-3.511.351-2.405-.425 1.093-.766-.129-.92-4.5-.566-3.691.298-5.23.164-4-.35 1.226-.512-2.836-.856-10.5-.889-7.179-.032-11.932.305-11.165.791M50.025 66.85c-1.978 7.12-1.264 18.711 1.59 25.847l2.616 6.537-4.523 8.633C43.031 120.612 41 128.198 41 140.395c0 21.099 7.272 36.007 22.301 45.721 12.868 8.317 29.952 11.26 65.699 11.318 41.747.068 59.501-4.169 73.055-17.434 9.695-9.488 14.437-22.482 14.235-39-.141-11.474-2.759-22.206-8.111-33.242l-3.797-7.832 1.751-6.713c1.746-6.693 2.422-21.188 1.259-27.002l-.608-3.039-5.142 1.493c-7.518 2.183-14.539 5.597-19.586 9.524l-4.443 3.458-5.565-2.781c-12.356-6.174-40.173-10.05-57.715-8.041-11.814 1.353-23.384 4.278-30.79 7.785l-5.449 2.579-3.297-3.155c-4.204-4.023-10.862-7.466-18.082-9.352L51.039 63.2l-1.014 3.65M.385 128c0 6.875.16 9.688.355 6.25.196-3.437.196-9.062 0-12.5-.195-3.437-.355-.625-.355 6.25" fill="#1976D2" fill-rule="evenodd"/><path fill-opacity=".083" d="M116 11.624C64.041 18.222 24.268 54.42 13.403 105c-2.408 11.209-2.433 35.26-.048 45.838 6.671 29.587 22.006 53.454 45.681 71.1 45.909 34.216 110.784 29.339 151.512-11.39 40.729-40.728 45.606-105.603 11.39-151.512-17.677-23.718-42.196-39.438-71.1-45.588-7.351-1.563-28.264-2.658-34.838-1.824M50.695 63.709c-.26.435-1.024 3.471-1.697 6.746-1.537 7.474-.7 14.948 2.596 23.188l2.543 6.356-2.128 2.988C45.79 111.722 40 129.744 40 140.37c0 7.27 2.76 19.52 5.919 26.27 3.443 7.359 10.503 15.334 17.581 19.863 12.403 7.934 25.725 10.441 59.516 11.199 25.747.577 44.366-.866 56.261-4.36 13.817-4.059 26.57-14.11 31.679-24.966 4.37-9.284 5.428-14.387 5.468-26.376.045-13.256-2.143-22.651-8.088-34.735l-3.559-7.234 1.557-6.766c2.331-10.125 2.847-15.541 2.105-22.098-.986-8.714-.975-8.708-9.812-5.741-7.706 2.586-14.219 6.083-18.358 9.854l-2.231 2.033-7.024-3.237c-11.895-5.483-23.66-7.424-45.014-7.426-16.74-.002-19.412.243-28.089 2.575-5.274 1.418-11.859 3.728-14.633 5.134-5.014 2.541-5.055 2.544-6.835.578-3.247-3.588-10.814-7.99-16.423-9.554-3.036-.847-6.27-1.748-7.186-2.002-.916-.254-1.879-.107-2.139.328" fill="#1976D2" fill-rule="evenodd"/><path fill-opacity=".157" d="M107.5 13.608c-48.013 8.571-85.693 46.57-93.974 94.773C1.348 179.261 55.994 244 128 244c31.43 0 59.901-11.774 82.064-33.936C232.226 187.901 244 159.43 244 128c0-56.609-40.468-104.864-95.926-114.382-11.427-1.961-29.62-1.966-40.574-.01M48.99 68.546c-1.683 8.109-.856 17.772 2.146 25.059l2.514 6.105-3.759 6.217c-13.925 23.029-12.74 53.872 2.765 71.985 4.481 5.234 13.434 11.23 20.993 14.058 13.628 5.099 46.854 7.873 73.103 6.104 29.924-2.016 44.833-6.695 55.563-17.439 10.736-10.749 15.229-23.908 14.386-42.135-.568-12.284-2.795-20.753-8.366-31.824l-3.434-6.823 1.67-5.677c2.02-6.862 2.928-21.176 1.693-26.676-.809-3.605-1.188-3.986-3.831-3.856-4.701.23-14.113 4.224-20.886 8.861l-6.269 4.292-5.889-2.902c-10.989-5.416-22.359-7.274-44.889-7.338-21.825-.062-29.572 1.222-42.571 7.055l-5.851 2.626-4.642-4.086c-4.747-4.178-12.409-7.644-19.352-8.755l-3.895-.622-1.199 5.771" fill="#1976D2" fill-rule="evenodd"/></svg>